<svg width="588" height="163" viewBox="0 0 588 163" fill="none" xmlns="http://www.w3.org/2000/svg">
<g filter="url(#filter0_bi_37_4915)">
<line x1="109.933" y1="76.3682" x2="145" y2="76.3682" stroke="#EA7000" stroke-width="30" stroke-linecap="round"/>
</g>
<g filter="url(#filter1_bii_37_4915)">
<path d="M40 43C62.0914 20.9086 97.9086 20.9086 120 43V43C142.091 65.0914 142.091 100.909 120 123V123C97.9086 145.091 62.0914 145.091 40 123V123C17.9086 100.909 17.9086 65.0914 40 43V43Z" fill="black" fill-opacity="0.3"/>
</g>
<g filter="url(#filter2_bi_37_4915)">
<rect y="50.8716" width="30.9333" height="20.7811" rx="10.3906" fill="#EBEBEB" fill-opacity="0.14"/>
</g>
<g filter="url(#filter3_bi_37_4915)">
<rect x="1.59998" y="82.8426" width="82.6667" height="21.314" rx="10.657" fill="#E5E5E5" fill-opacity="0.04"/>
</g>
<rect y="3" width="160" height="159.855" fill="#F3ECEC" fill-opacity="0.1"/>
<path d="M198.984 106.64C195.613 106.64 192.499 106.085 189.64 104.976C186.824 103.824 184.371 102.224 182.28 100.176C180.189 98.0853 178.568 95.632 177.416 92.816C176.307 89.9573 175.752 86.8213 175.752 83.408C175.752 80.08 176.349 77.008 177.544 74.192C178.739 71.376 180.381 68.944 182.472 66.896C184.605 64.8053 187.101 63.184 189.96 62.032C192.861 60.88 196.019 60.304 199.432 60.304C201.565 60.304 203.656 60.5813 205.704 61.136C207.752 61.6907 209.651 62.5227 211.4 63.632C213.192 64.6987 214.728 65.9787 216.008 67.472L209.352 75.088C208.456 74.1493 207.496 73.3387 206.472 72.656C205.491 71.9307 204.403 71.376 203.208 70.992C202.013 70.608 200.733 70.416 199.368 70.416C197.661 70.416 196.04 70.736 194.504 71.376C193.011 71.9733 191.688 72.848 190.536 74C189.427 75.1093 188.552 76.4747 187.912 78.096C187.272 79.7173 186.952 81.5307 186.952 83.536C186.952 85.4987 187.272 87.2907 187.912 88.912C188.552 90.4907 189.448 91.856 190.6 93.008C191.752 94.16 193.139 95.0347 194.76 95.632C196.424 96.2293 198.259 96.528 200.264 96.528C201.629 96.528 202.931 96.336 204.168 95.952C205.405 95.568 206.536 95.056 207.56 94.416C208.627 93.7333 209.565 92.9653 210.376 92.112L215.624 100.432C214.557 101.627 213.128 102.693 211.336 103.632C209.587 104.571 207.624 105.317 205.448 105.872C203.315 106.384 201.16 106.64 198.984 106.64ZM234.526 106.576C231.667 106.576 229.107 105.829 226.845 104.336C224.627 102.8 222.856 100.709 221.534 98.064C220.211 95.376 219.549 92.3467 219.549 88.976C219.549 85.52 220.211 82.4693 221.534 79.824C222.856 77.1787 224.67 75.1093 226.974 73.616C229.278 72.08 231.902 71.312 234.846 71.312C236.467 71.312 237.939 71.5467 239.262 72.016C240.627 72.4853 241.822 73.1467 242.846 74C243.87 74.8107 244.744 75.7707 245.47 76.88C246.195 77.9467 246.728 79.0987 247.07 80.336L244.958 80.08V72.016H255.134V106H244.766V97.808L247.07 97.744C246.728 98.9387 246.174 100.069 245.406 101.136C244.638 102.203 243.699 103.141 242.59 103.952C241.48 104.763 240.243 105.403 238.878 105.872C237.512 106.341 236.062 106.576 234.526 106.576ZM237.342 97.936C238.92 97.936 240.286 97.5733 241.438 96.848C242.59 96.1227 243.486 95.0987 244.126 93.776C244.766 92.4107 245.086 90.8107 245.086 88.976C245.086 87.1413 244.766 85.5627 244.126 84.24C243.486 82.8747 242.59 81.8293 241.438 81.104C240.286 80.336 238.92 79.952 237.342 79.952C235.806 79.952 234.462 80.336 233.31 81.104C232.2 81.8293 231.326 82.8747 230.686 84.24C230.046 85.5627 229.726 87.1413 229.726 88.976C229.726 90.8107 230.046 92.4107 230.686 93.776C231.326 95.0987 232.2 96.1227 233.31 96.848C234.462 97.5733 235.806 97.936 237.342 97.936ZM266.985 106V63.44H277.225V106H266.985ZM260.969 80.976V72.016H283.817V80.976H260.969ZM301.901 106.576C299.042 106.576 296.482 105.829 294.22 104.336C292.002 102.8 290.231 100.709 288.909 98.064C287.586 95.376 286.924 92.3467 286.924 88.976C286.924 85.52 287.586 82.4693 288.909 79.824C290.231 77.1787 292.045 75.1093 294.349 73.616C296.653 72.08 299.277 71.312 302.221 71.312C303.842 71.312 305.314 71.5467 306.637 72.016C308.002 72.4853 309.197 73.1467 310.221 74C311.245 74.8107 312.119 75.7707 312.845 76.88C313.57 77.9467 314.103 79.0987 314.445 80.336L312.333 80.08V72.016H322.509V106H312.141V97.808L314.445 97.744C314.103 98.9387 313.549 100.069 312.781 101.136C312.013 102.203 311.074 103.141 309.965 103.952C308.855 104.763 307.618 105.403 306.253 105.872C304.887 106.341 303.437 106.576 301.901 106.576ZM304.717 97.936C306.295 97.936 307.661 97.5733 308.813 96.848C309.965 96.1227 310.861 95.0987 311.501 93.776C312.141 92.4107 312.461 90.8107 312.461 88.976C312.461 87.1413 312.141 85.5627 311.501 84.24C310.861 82.8747 309.965 81.8293 308.813 81.104C307.661 80.336 306.295 79.952 304.717 79.952C303.181 79.952 301.837 80.336 300.685 81.104C299.575 81.8293 298.701 82.8747 298.061 84.24C297.421 85.5627 297.101 87.1413 297.101 88.976C297.101 90.8107 297.421 92.4107 298.061 93.776C298.701 95.0987 299.575 96.1227 300.685 96.848C301.837 97.5733 303.181 97.936 304.717 97.936ZM331.608 106V58.64H341.848V106H331.608ZM354.332 120.72L362.076 102.48L362.204 107.728L345.82 72.016H357.404L364.572 89.104C364.956 89.9573 365.319 90.8747 365.66 91.856C366.001 92.8373 366.257 93.776 366.428 94.672L365.02 95.504C365.276 94.864 365.553 94.0747 365.852 93.136C366.193 92.1547 366.556 91.1093 366.94 90L373.212 72.016H384.86L370.396 106L364.508 120.72H354.332ZM400.562 106.64C397.235 106.64 394.291 106.107 391.731 105.04C389.213 103.973 387.208 102.544 385.715 100.752L391.923 95.376C393.245 96.6987 394.739 97.68 396.403 98.32C398.067 98.9173 399.645 99.216 401.139 99.216C401.736 99.216 402.269 99.152 402.739 99.024C403.208 98.896 403.592 98.7253 403.891 98.512C404.232 98.256 404.488 97.9787 404.659 97.68C404.829 97.3387 404.915 96.9547 404.915 96.528C404.915 95.6747 404.531 95.0133 403.763 94.544C403.379 94.3307 402.739 94.0747 401.843 93.776C400.947 93.4773 399.795 93.136 398.387 92.752C396.381 92.24 394.632 91.6427 393.139 90.96C391.688 90.2347 390.493 89.4027 389.555 88.464C388.701 87.568 388.04 86.5867 387.571 85.52C387.101 84.4107 386.867 83.1733 386.867 81.808C386.867 80.2293 387.229 78.8 387.955 77.52C388.723 76.24 389.725 75.1307 390.963 74.192C392.243 73.2533 393.693 72.5493 395.315 72.08C396.979 71.568 398.685 71.312 400.435 71.312C402.312 71.312 404.104 71.5253 405.811 71.952C407.517 72.3787 409.096 72.976 410.547 73.744C412.04 74.512 413.363 75.4293 414.515 76.496L409.139 82.512C408.371 81.7867 407.496 81.1467 406.515 80.592C405.576 79.9947 404.595 79.5253 403.571 79.184C402.547 78.8427 401.608 78.672 400.755 78.672C400.115 78.672 399.539 78.736 399.027 78.864C398.557 78.9493 398.152 79.12 397.811 79.376C397.469 79.5893 397.213 79.8667 397.043 80.208C396.872 80.5067 396.787 80.8693 396.787 81.296C396.787 81.7227 396.893 82.128 397.107 82.512C397.363 82.896 397.704 83.216 398.131 83.472C398.557 83.728 399.24 84.0267 400.179 84.368C401.117 84.6667 402.397 85.0507 404.019 85.52C406.024 86.0747 407.752 86.6933 409.203 87.376C410.653 88.0587 411.805 88.8693 412.659 89.808C413.341 90.5333 413.853 91.3867 414.195 92.368C414.536 93.3067 414.707 94.3307 414.707 95.44C414.707 97.616 414.088 99.5573 412.851 101.264C411.656 102.928 409.992 104.251 407.859 105.232C405.725 106.171 403.293 106.64 400.562 106.64ZM423.61 106V63.44H433.85V106H423.61ZM417.594 80.976V72.016H440.442V80.976H417.594Z" fill="#FAF9F9"/>
<defs>
<filter id="filter0_bi_37_4915" x="6.93335" y="-26.6318" width="241.067" height="206" filterUnits="userSpaceOnUse" color-interpolation-filters="sRGB">
<feFlood flood-opacity="0" result="BackgroundImageFix"/>
<feGaussianBlur in="BackgroundImageFix" stdDeviation="44"/>
<feComposite in2="SourceAlpha" operator="in" result="effect1_backgroundBlur_37_4915"/>
<feBlend mode="normal" in="SourceGraphic" in2="effect1_backgroundBlur_37_4915" result="shape"/>
<feColorMatrix in="SourceAlpha" type="matrix" values="0 0 0 0 0 0 0 0 0 0 0 0 0 0 0 0 0 0 127 0" result="hardAlpha"/>
<feOffset dy="2"/>
<feGaussianBlur stdDeviation="2"/>
<feComposite in2="hardAlpha" operator="arithmetic" k2="-1" k3="1"/>
<feColorMatrix type="matrix" values="0 0 0 0 0.841667 0 0 0 0 0.670807 0 0 0 0 0.547083 0 0 0 1 0"/>
<feBlend mode="normal" in2="shape" result="effect2_innerShadow_37_4915"/>
</filter>
<filter id="filter1_bii_37_4915" x="-62.5686" y="-59.5686" width="285.137" height="285.137" filterUnits="userSpaceOnUse" color-interpolation-filters="sRGB">
<feFlood flood-opacity="0" result="BackgroundImageFix"/>
<feGaussianBlur in="BackgroundImageFix" stdDeviation="43"/>
<feComposite in2="SourceAlpha" operator="in" result="effect1_backgroundBlur_37_4915"/>
<feBlend mode="normal" in="SourceGraphic" in2="effect1_backgroundBlur_37_4915" result="shape"/>
<feColorMatrix in="SourceAlpha" type="matrix" values="0 0 0 0 0 0 0 0 0 0 0 0 0 0 0 0 0 0 127 0" result="hardAlpha"/>
<feOffset dy="4"/>
<feGaussianBlur stdDeviation="2"/>
<feComposite in2="hardAlpha" operator="arithmetic" k2="-1" k3="1"/>
<feColorMatrix type="matrix" values="0 0 0 0 1 0 0 0 0 1 0 0 0 0 1 0 0 0 0.15 0"/>
<feBlend mode="normal" in2="shape" result="effect2_innerShadow_37_4915"/>
<feColorMatrix in="SourceAlpha" type="matrix" values="0 0 0 0 0 0 0 0 0 0 0 0 0 0 0 0 0 0 127 0" result="hardAlpha"/>
<feOffset/>
<feGaussianBlur stdDeviation="34"/>
<feComposite in2="hardAlpha" operator="arithmetic" k2="-1" k3="1"/>
<feColorMatrix type="matrix" values="0 0 0 0 1 0 0 0 0 1 0 0 0 0 1 0 0 0 0.05 0"/>
<feBlend mode="normal" in2="effect2_innerShadow_37_4915" result="effect3_innerShadow_37_4915"/>
</filter>
<filter id="filter2_bi_37_4915" x="-88" y="-37.1284" width="206.933" height="196.781" filterUnits="userSpaceOnUse" color-interpolation-filters="sRGB">
<feFlood flood-opacity="0" result="BackgroundImageFix"/>
<feGaussianBlur in="BackgroundImageFix" stdDeviation="44"/>
<feComposite in2="SourceAlpha" operator="in" result="effect1_backgroundBlur_37_4915"/>
<feBlend mode="normal" in="SourceGraphic" in2="effect1_backgroundBlur_37_4915" result="shape"/>
<feColorMatrix in="SourceAlpha" type="matrix" values="0 0 0 0 0 0 0 0 0 0 0 0 0 0 0 0 0 0 127 0" result="hardAlpha"/>
<feOffset dy="2"/>
<feGaussianBlur stdDeviation="1"/>
<feComposite in2="hardAlpha" operator="arithmetic" k2="-1" k3="1"/>
<feColorMatrix type="matrix" values="0 0 0 0 1 0 0 0 0 1 0 0 0 0 1 0 0 0 0.3 0"/>
<feBlend mode="normal" in2="shape" result="effect2_innerShadow_37_4915"/>
</filter>
<filter id="filter3_bi_37_4915" x="-86.4" y="-5.15744" width="258.667" height="197.314" filterUnits="userSpaceOnUse" color-interpolation-filters="sRGB">
<feFlood flood-opacity="0" result="BackgroundImageFix"/>
<feGaussianBlur in="BackgroundImageFix" stdDeviation="44"/>
<feComposite in2="SourceAlpha" operator="in" result="effect1_backgroundBlur_37_4915"/>
<feBlend mode="normal" in="SourceGraphic" in2="effect1_backgroundBlur_37_4915" result="shape"/>
<feColorMatrix in="SourceAlpha" type="matrix" values="0 0 0 0 0 0 0 0 0 0 0 0 0 0 0 0 0 0 127 0" result="hardAlpha"/>
<feOffset dy="2"/>
<feGaussianBlur stdDeviation="1"/>
<feComposite in2="hardAlpha" operator="arithmetic" k2="-1" k3="1"/>
<feColorMatrix type="matrix" values="0 0 0 0 1 0 0 0 0 1 0 0 0 0 1 0 0 0 0.3 0"/>
<feBlend mode="normal" in2="shape" result="effect2_innerShadow_37_4915"/>
</filter>
</defs>
</svg>
